<svg width="154" height="48" viewBox="0 0 154 48" fill="none" xmlns="http://www.w3.org/2000/svg">
<path d="M54.4689 16.0025L62.2079 34.262L73.5888 7.23871H82.6935V45.9361H73.5888V24.3111L65.8498 45.9361H59.0213L50.827 24.3657L54.4689 16.0025Z" fill="#0F0F0F"/>
<path d="M87.2458 7.23871H96.3506V24.3657L110.008 24.3111V7.23871H119.112V45.9361H110.008V30.0019H96.3506V45.9361H87.2458V7.23871Z" fill="#0F0F0F"/>
<path d="M124.234 11.6776L151.548 24.3111V30.0019L124.234 41.3835V36.8308L147.304 26.5874L124.234 16.344V11.6776Z" fill="#808080" stroke="#808080" stroke-width="4" stroke-miterlimit="10"/>
<path d="M28.862 11.6776L1.54785 24.3111V30.0019L28.862 41.3835V36.8308L5.79178 26.5874L28.862 16.344V11.6776Z" fill="#808080" stroke="#808080" stroke-width="4" stroke-miterlimit="10"/>
<path d="M56.5824 11.5535L61.3214 1.54791H56.661L35.6906 45.8223H40.351L56.5824 11.5535Z" fill="#808080" stroke="#808080" stroke-width="4" stroke-miterlimit="10"/>
</svg>
