<svg width="154" height="49" viewBox="0 0 154 49" fill="none" xmlns="http://www.w3.org/2000/svg">
<path d="M54.9211 16.4546L62.6601 34.7141L74.0409 7.6908H83.1456V46.3882H74.0409V24.7632L66.3019 46.3882H59.4734L51.2792 24.8178L54.9211 16.4546Z" fill="#FFF7F7"/>
<path d="M87.698 7.6908H96.8027V24.8178L110.46 24.7632V7.6908H119.564V46.3882H110.46V30.454H96.8027V46.3882H87.698V7.6908Z" fill="#FFF7F7"/>
<path d="M124.686 12.1296L152 24.7632V30.454L124.686 41.8356V37.2829L147.756 27.0395L124.686 16.7961V12.1296Z" fill="#808080" stroke="#808080" stroke-width="4" stroke-miterlimit="10"/>
<path d="M29.3141 12.1296L2 24.7632V30.454L29.3141 41.8356V37.2829L6.24393 27.0395L29.3141 16.7961V12.1296Z" fill="#808080" stroke="#808080" stroke-width="4" stroke-miterlimit="10"/>
<path d="M57.0346 12.0055L61.7736 2H57.1131L36.1427 46.2744H40.8032L57.0346 12.0055Z" fill="#808080" stroke="#808080" stroke-width="4" stroke-miterlimit="10"/>
</svg>
