<svg xmlns="http://www.w3.org/2000/svg" viewBox="0 0 1281.49 470.15"><g id="Camada_6" data-name="Camada 6"><polygon points="967.09 94.57 967.09 376.13 908.19 376.13 908.19 249.09 781.94 249.09 781.94 376.13 723.24 376.13 723.24 94.57 781.94 94.57 781.94 194.71 908.19 194.71 908.19 94.57 967.09 94.57"/><polygon points="670.23 94.58 670.23 376.13 611.52 376.13 611.52 203.16 517.86 313.3 425.27 204.41 448.47 153.7 517.86 234.17 638.22 94.58 670.23 94.58"/><polygon points="500.16 40.78 448.47 153.7 425.27 204.41 365.5 335.01 334.15 403.51 276.88 403.51 365.5 209.86 411.07 110.31 442.88 40.78 500.16 40.78"/><polygon points="262.4 124.42 262.4 185.87 151.07 235.94 262.4 286.2 262.4 347.66 94.33 265.59 94.33 206.29 262.4 124.42"/><polygon points="1187.12 206.29 1187.12 265.59 1019.05 347.66 1019.05 286.2 1130.38 235.94 1019.05 185.87 1019.05 124.42 1187.12 206.29"/></g></svg>