<svg width="413" height="105" viewBox="0 0 413 105" fill="none" xmlns="http://www.w3.org/2000/svg">
<g clip-path="url(#clip0)">
<path d="M147.036 6.2313C149.279 4.8886 151.896 4.29779 154.501 4.54568C157.325 4.78747 160.496 3.6614 163.521 3.28144C163.854 3.23999 164.166 2.97056 164.492 2.97056C172.069 2.87384 179.611 1.65797 187.201 2.27972C187.375 2.27972 187.52 2.54916 187.687 2.70114C187.84 3.77194 186.736 3.39197 186.299 3.77884C186.639 4.78746 187.853 3.77885 188.263 4.99472C183.455 4.65621 178.723 5.43686 174.032 4.37297C173.581 4.24733 173.106 4.22604 172.645 4.31078C168.621 5.25722 164.409 4.42131 160.426 5.651C158.345 6.28657 156.222 6.18294 154.113 6.34183C152.288 6.46618 150.456 6.29348 148.687 6.99814C148.278 7.17084 147.612 7.13629 147.036 6.2313Z" fill="#51403F"/>
<path d="M196.52 1.77548C196.568 1.5475 196.52 1.20899 196.658 1.16754C197.533 0.808306 198.476 0.366163 198.976 1.74092C198.074 2.35577 197.297 2.40414 196.52 1.77548Z" fill="#51403F"/>
<path d="M200.072 1.09152C200.904 0.739195 201.688 0.594102 202.368 1.35402C202.271 1.60963 202.25 1.89978 202.119 1.96196C201.154 2.42482 200.46 2.12777 200.072 1.09152Z" fill="#51403F"/>
<path d="M209.133 2.2038C207.843 2.2038 206.628 2.13472 205.664 1.08465C211.804 -0.552632 218.042 0.393809 224.224 0.110567C232.411 -0.303934 240.57 0.545799 248.716 1.00175C253.649 1.27808 258.582 1.27118 263.515 1.51988C267.338 1.71331 271.099 2.65284 275.234 2.09326C274.415 3.89634 273.201 3.77889 272.348 3.40584C270.877 2.74955 269.406 2.92226 267.928 2.90844C262.495 2.90844 257.049 3.15716 251.637 2.8601C237.49 2.06564 223.308 2.26597 209.133 2.2038Z" fill="#51403F"/>
<path d="M280.417 3.41964H276.455C277.766 2.71499 279.092 2.94987 280.417 3.41964Z" fill="#51403F"/>
<path d="M282.006 3.3851C285.475 2.19686 288.105 3.90323 290.824 3.99995C288.098 3.99995 285.288 4.87039 282.006 3.3851Z" fill="#51403F"/>
<path d="M363.676 16.9876C358.694 18.1413 353.789 16.5593 348.821 16.4488C353.796 15.3296 358.701 16.8149 363.676 16.9876Z" fill="#51403F"/>
<path d="M410.911 55.4326C410.842 55.7435 411.938 56.4067 411.55 57.3462C406.221 57.5949 406.221 57.5949 405.999 60.2754C403.918 59.7089 402.433 61.2701 400.664 61.9403C403.439 63.5983 406.79 63.7572 410.495 65.0214C407.831 66.0507 405.791 66.9627 403.696 66.2995C401.052 65.4566 398.464 65.9471 395.633 65.809C396.639 68.0127 399.179 66.2994 399.796 67.5153C400.539 68.9937 401.836 69.5049 403.037 70.4237C402.391 72.0956 401.274 72.8624 399.567 72.6689C396.667 72.3443 393.92 73.7328 391.013 73.3598C390.646 73.311 390.275 73.4043 389.975 73.6202C389.676 73.8362 389.471 74.1584 389.403 74.5204C391.165 76.2406 394.26 74.8727 395.849 77.1041C394.523 79.7914 391.429 78.389 389.549 79.8191C389.549 81.1178 391.311 80.731 391.568 81.8916C389.965 85.5944 386.773 85.8846 383.165 85.8363C380.48 85.8017 377.781 86.1333 375.048 85.8363C377.934 88.0469 381.472 88.3923 384.685 89.4079C384.345 91.7912 382.513 91.5771 381.216 91.1557C379.224 90.4649 377.053 90.8725 375.166 89.9882C374.805 89.8224 374.229 89.8984 374.111 90.7964C375.297 91.6876 376.886 91.7705 378.593 92.2818C375.936 92.9726 373.625 93.2834 371.211 92.1228C370.281 91.6738 368.963 91.6738 367.457 92.6133C371.558 94.3542 375.901 93.8569 380.008 95.8603C378.003 95.9708 376.623 96.786 375.152 97.4216C372.787 98.5314 370.131 98.8698 367.561 98.3887C364.73 97.7539 361.784 97.8466 358.999 98.6582C357.657 99.0345 356.243 99.082 354.878 98.7963C350.583 98.0433 346.24 97.8291 341.931 97.3525C335.798 96.6616 329.581 96.786 323.517 95.4458C323.402 95.4284 323.285 95.4284 323.17 95.4458C318.313 95.8603 313.547 94.6996 308.718 94.7549C298.574 94.8102 288.458 93.8569 278.3 93.919C275.329 93.9991 272.36 93.6642 269.482 92.9242C268.468 92.7112 267.429 92.6368 266.394 92.7032C256.917 92.7032 247.432 92.8137 237.948 92.6203C232.799 92.5097 227.665 92.862 222.524 92.6893C221.136 92.6479 219.873 92.6479 218.985 94.1953C218.675 94.6866 218.209 95.0603 217.66 95.2569C217.112 95.4534 216.514 95.4615 215.96 95.28C212.914 94.4648 209.896 94.8171 206.781 95.28C203.263 95.7566 199.634 95.4734 196.047 95.4803C192.46 95.4872 189.005 96.1712 185.501 96.6755C184.709 96.774 183.913 96.8316 183.114 96.8482C176.87 97.09 170.626 97.3179 164.381 97.539C163.819 97.539 162.917 97.539 162.758 97.8222C161.37 100.44 158.955 99.5148 156.902 99.5701C151.405 99.716 145.92 100.163 140.472 100.91C139.436 101.004 138.395 101.024 137.357 100.972C132.646 100.972 127.99 101.256 123.723 103.556C123.508 103.663 123.269 103.715 123.029 103.708C118.338 103.759 113.658 104.182 109.035 104.972C108.202 105.104 107.82 104.434 107.342 103.964C105.094 101.719 105.912 97.7463 108.882 96.7653C111.588 95.8948 114.537 95.9017 117.152 94.6928C118.228 94.1885 119.664 94.2852 120.268 92.8482C120.433 92.5329 120.698 92.2803 121.021 92.1293C121.344 91.9783 121.709 91.9372 122.058 92.0123C124.049 92.2334 125.874 91.5218 127.754 91.059C127.213 90.2783 126.408 90.5961 125.763 90.6307C117.687 91.0935 109.666 89.8224 101.604 89.9398C93.8259 90.0403 86.0863 91.0419 78.541 92.9242C74.7874 93.8569 70.7077 94.0157 67.2941 95.6323C63.8805 97.2488 60.5501 96.3646 57.2752 97.3732C55.5407 97.9052 53.5285 96.6271 51.5303 96.8205C49.9207 96.9725 48.415 97.1176 47.2355 98.7411C49.1019 99.2246 50.8643 97.242 52.5919 98.8861C49.1228 100.143 44.4047 99.7497 33.0676 97.3387C33.6435 96.2264 34.8993 97.2903 35.8429 96.2955C33.6574 95.052 31.2567 95.1763 29.0296 94.8102C22.9933 93.8085 16.9292 94.9346 10.8721 94.8793C8.29804 94.8793 5.71701 95.7912 2.76825 95.273C5.43948 92.4475 9.17228 94.1816 12.017 92.413C11.4619 91.3629 12.3639 90.5132 12.8426 89.2835H6.59818C10.4004 86.907 14.3204 87.7568 17.5884 86.2507C17.1513 84.9312 17.1513 84.9313 19.3785 83.6394C17.9908 82.6031 16.4366 83.1489 15.042 83.0453C13.8867 82.9759 12.7282 82.9759 11.5729 83.0453C10.2408 83.1075 9.04043 83.1213 8.74208 81.4011C8.62413 80.7103 7.35442 81.332 7.29891 79.9572C10.664 79.2664 14.2788 79.8329 17.623 78.5756C17.7271 78.0022 16.9709 77.7604 16.8529 77.1939C17.0958 75.9919 18.6777 76.2544 19.0454 75.1905C19.0816 75.0242 19.0548 74.8505 18.9703 74.7026C18.8858 74.5547 18.7495 74.4431 18.5875 74.3891C17.29 73.6983 15.8677 74.1819 14.5147 74.0299C12.794 72.0886 10.6085 72.5308 8.47843 72.9384C7.32667 73.1664 5.5713 73.9746 5.32153 72.7311C5.00237 71.1629 2.54622 73.042 2.97639 70.7139C3.18454 69.6085 0.894933 70.3477 0.00683594 69.194C0.37079 68.7798 0.815598 68.4438 1.3142 68.2062C1.8128 67.9687 2.35475 67.8347 2.90702 67.8124C6.51492 67.2942 10.1991 67.3357 13.7793 66.486C14.5425 66.3063 15.3265 66.2373 16.1105 66.03C17.5398 65.6501 16.0134 64.7727 16.4852 64.4964C17.1615 64.0696 17.9162 63.7808 18.7054 63.6466C20.6639 63.2765 22.5683 62.6638 24.374 61.8228C24.8736 60.8418 22.1329 60.1027 24.5683 59.3911C21.4113 56.9525 17.9491 59.4809 14.5841 58.6243C15.4791 56.5103 17.5953 56.3652 18.9344 55.2944C20.5718 54.0026 22.7643 53.3532 24.256 51.6883C24.7625 51.1218 25.5535 51.3636 26.2196 51.2392C30.1327 50.4885 34.039 49.7079 37.9383 48.8973C38.3862 48.7404 38.8109 48.5243 39.2011 48.2548L38.417 46.6314C40.6928 45.7747 42.9963 47.868 45.4594 45.9405C47.0343 44.7247 50.2052 45.8093 51.9536 43.2946C49.5599 42.6038 47.6865 43.3706 45.7716 43.4881C43.8566 43.6055 42.7118 41.1807 40.554 41.5261C40.7552 40.2135 41.5878 40.2342 42.3719 40.1997C46.6805 40.0132 50.9614 39.3638 55.2978 39.4605C58.1078 39.5227 58.4478 39.1289 59.3081 36.255C61.5145 35.6885 63.9984 36.6764 66.066 35.7991C68.1336 34.9217 70.673 36.2205 73.0043 34.1273C69.9029 34.0444 67.412 33.616 64.9351 34.3967C64.5 34.5377 64.0465 34.6145 63.589 34.6247C57.8442 34.6592 52.1895 35.4744 46.514 36.2274C44.8349 36.4485 42.6702 37.3604 41.0536 34.8872C42.1498 33.7888 43.0795 32.2966 45.0014 33.9891C45.612 34.521 46.0422 33.9891 46.5556 33.9891C48.8869 34.0927 50.4549 32.0824 52.6543 31.813C53.3482 28.5039 56.3802 29.7405 58.5311 28.8009C56.2206 26.7284 53.2372 28.497 50.788 27.3709C50.788 25.6991 51.9397 25.6576 53.147 25.6714C54.3542 25.6853 55.388 25.8303 56.2068 24.1792C56.7549 23.0739 58.9196 22.839 60.4946 22.2933H43.5652C43.5652 22.0376 43.5097 21.7751 43.4889 21.5126C48.3346 21.6425 53.1721 21.0415 57.8372 19.7303C55.7974 19.5023 53.7853 19.1569 51.7593 19.8546C49.4489 20.6491 46.9927 20.1862 44.5921 20.504C40.776 21.0083 36.9184 22.0998 32.922 21.3399C34.0945 19.7026 36.1066 19.7165 37.5844 19.6128C43.8289 19.1569 49.9623 17.5403 56.3177 17.2364C62.25 16.9738 68.1822 16.2968 74.1283 15.8547C81.5383 15.3435 88.8998 14.2105 96.3307 13.7822C100.494 13.5335 104.615 12.29 108.764 11.5439C113.926 10.6251 119.067 9.61644 124.278 9.00851C127.782 8.60092 131.216 7.82027 134.727 7.25378C137.211 6.86001 139.723 6.43169 141.929 7.94462C142.297 9.32629 140.888 9.39537 140.541 10.2727C140.85 10.3682 141.166 10.4421 141.485 10.4938C145.967 10.5283 150.373 9.85133 154.792 9.22267C158.074 8.7529 161.412 8.91179 164.742 8.53183C175.066 7.29524 185.494 8.28312 195.832 7.61992C209.563 6.74256 223.294 7.66137 236.99 6.92909C242.631 6.61821 248.195 7.06034 253.753 7.24687C261.08 7.48866 268.42 8.05514 275.726 8.62854C281.145 9.05685 286.557 8.68382 291.927 9.20886C298.713 9.89969 305.526 9.44373 312.284 9.95495C318.681 10.4385 325.057 11.0672 331.482 11.3366C336.492 11.5577 341.501 12.2554 346.517 12.7183C349.352 12.8776 352.174 13.2075 354.968 13.7062C352.235 15.1846 350.028 14.6181 347.898 14.397C347.246 14.3348 346.615 13.9065 345.9 13.9618C339.898 14.3901 333.98 12.967 327.972 13.2226C325.356 13.3262 322.705 13.5335 320.097 12.6699C318.955 12.3297 317.731 12.3882 316.627 12.8357C319.965 14.8461 323.802 13.3746 327.299 14.2174C326.896 15.5369 326.105 15.2537 325.495 15.2882C322.983 15.4125 320.457 15.0326 317.973 15.9238C317.077 16.1685 316.125 16.1077 315.268 15.751C314.066 15.3324 312.784 15.1953 311.521 15.3504C305.519 15.6889 299.539 14.8806 293.606 14.3901C289.187 14.024 284.691 14.3901 280.257 13.3884C277.537 12.7597 274.706 14.6043 271.522 13.6716C271.834 15.1017 272.514 15.3504 273.319 15.2744C278.058 14.8392 282.727 15.7994 287.424 16.0896C296.021 16.6146 304.603 17.2087 313.221 17.4712C315.842 17.6234 318.433 18.0991 320.936 18.8874C323.018 19.4816 325.064 19.1776 327.083 19.5092C331.843 20.2898 336.721 19.6474 341.446 20.7665C341.672 20.8213 341.907 20.8376 342.139 20.8149C346.878 20.4142 351.534 21.8097 356.252 21.5057C360.97 21.2017 365.369 22.3209 370.559 22.3209C369.645 22.8414 368.583 23.0454 367.54 22.9012C361.643 22.9012 355.745 22.9012 349.848 22.9012C348.821 22.9012 347.766 23.0601 346.788 22.5558C345.248 21.7751 344.512 22.839 343.277 24.2967C352.602 23.9236 361.178 26.0169 370.038 26.4244C369.344 28.0134 367.624 27.3847 366.437 28.3588C370.822 28.3588 374.853 29.4158 379.023 29.2085C381.653 29.0773 384.199 30.0237 386.752 30.5902C389.66 31.2258 392.511 32.0893 395.529 31.9719C396.313 31.9304 397.215 31.806 397.555 32.8285C398.207 34.8112 399.984 34.9839 401.628 35.4053C403.71 35.9372 405.736 36.5106 408.372 37.2222C405.396 39.1773 402.169 37.084 399.706 39.0391C401.152 39.8157 402.735 40.306 404.369 40.4829C402.724 41.3534 401.129 40.483 399.581 41.4709C400.927 43.0183 402.745 41.837 404.07 42.5209C403.973 43.7644 402.815 43.6124 401.843 43.8542C404.161 45.4915 406.637 44.8835 409.114 45.2359C406.95 47.3636 404.306 45.9267 401.843 46.735C404.237 49.2497 407.477 48.8835 410.301 49.9059H397.229C397.229 50.1546 397.153 50.3964 397.118 50.6451C399.533 51.6676 402.232 51.5847 404.799 51.9784C407.505 52.3929 410.211 53.0009 412.986 52.6693C413.16 54.2098 411.383 53.8368 410.911 55.4326Z" fill="#51403F"/>
<path d="M410.911 55.4326C410.842 55.7435 411.938 56.4067 411.55 57.3462C406.221 57.5949 406.221 57.5949 405.999 60.2754C403.918 59.7089 402.433 61.2701 400.664 61.9403C403.439 63.5983 406.79 63.7572 410.495 65.0214C407.831 66.0507 405.791 66.9627 403.696 66.2995C401.052 65.4566 398.464 65.9471 395.633 65.809C396.639 68.0127 399.179 66.2994 399.796 67.5153C400.539 68.9937 401.836 69.5049 403.037 70.4237C402.391 72.0956 401.274 72.8624 399.567 72.6689C396.667 72.3443 393.92 73.7328 391.013 73.3598C390.646 73.311 390.275 73.4043 389.975 73.6202C389.676 73.8362 389.471 74.1584 389.403 74.5204C391.165 76.2406 394.26 74.8727 395.849 77.1041C394.523 79.7914 391.429 78.389 389.549 79.8191C389.549 81.1178 391.311 80.731 391.568 81.8916C389.965 85.5944 386.773 85.8846 383.165 85.8363C380.48 85.8017 377.781 86.1333 375.048 85.8363C377.934 88.0469 381.472 88.3923 384.685 89.4079C384.345 91.7912 382.513 91.5771 381.216 91.1557C379.224 90.4649 377.053 90.8725 375.166 89.9882C374.805 89.8224 374.229 89.8984 374.111 90.7964C375.297 91.6876 376.886 91.7705 378.593 92.2818C375.936 92.9726 373.625 93.2834 371.211 92.1228C370.281 91.6738 368.963 91.6738 367.457 92.6133C371.558 94.3542 375.901 93.8569 380.008 95.8603C378.003 95.9708 376.623 96.786 375.152 97.4216C372.787 98.5314 370.131 98.8698 367.561 98.3887C364.73 97.7539 361.784 97.8466 358.999 98.6582C357.657 99.0345 356.243 99.082 354.878 98.7963C350.583 98.0433 346.24 97.8291 341.931 97.3525C335.798 96.6616 329.581 96.786 323.517 95.4458C323.402 95.4284 323.285 95.4284 323.17 95.4458C318.313 95.8603 313.547 94.6996 308.718 94.7549C298.574 94.8102 288.458 93.8569 278.3 93.919C275.329 93.9991 272.36 93.6642 269.482 92.9242C268.468 92.7112 267.429 92.6368 266.394 92.7032C256.917 92.7032 247.432 92.8137 237.948 92.6203C232.799 92.5097 227.665 92.862 222.524 92.6893C221.136 92.6479 219.873 92.6479 218.985 94.1953C218.675 94.6866 218.209 95.0603 217.66 95.2569C217.112 95.4534 216.514 95.4615 215.96 95.28C212.914 94.4648 209.896 94.8171 206.781 95.28C203.263 95.7566 199.634 95.4734 196.047 95.4803C192.46 95.4872 189.005 96.1712 185.501 96.6755C184.709 96.774 183.913 96.8316 183.114 96.8482C176.87 97.09 170.626 97.3179 164.381 97.539C163.819 97.539 162.917 97.539 162.758 97.8222C161.37 100.44 158.955 99.5148 156.902 99.5701C151.405 99.716 145.92 100.163 140.472 100.91C139.436 101.004 138.395 101.024 137.357 100.972C132.646 100.972 127.99 101.256 123.723 103.556C123.508 103.663 123.269 103.715 123.029 103.708C118.338 103.759 113.658 104.182 109.035 104.972C108.202 105.104 107.82 104.434 107.342 103.964C105.094 101.719 105.912 97.7463 108.882 96.7653C111.588 95.8948 114.537 95.9017 117.152 94.6928C118.228 94.1885 119.664 94.2852 120.268 92.8482C120.433 92.5329 120.698 92.2803 121.021 92.1293C121.344 91.9783 121.709 91.9372 122.058 92.0123C124.049 92.2334 125.874 91.5218 127.754 91.059C127.213 90.2783 126.408 90.5961 125.763 90.6307C117.687 91.0935 109.666 89.8224 101.604 89.9398C93.8259 90.0403 86.0863 91.0419 78.541 92.9242C74.7874 93.8569 70.7077 94.0157 67.2941 95.6323C63.8805 97.2488 60.5501 96.3646 57.2752 97.3732C55.5407 97.9052 53.5285 96.6271 51.5303 96.8205C49.9207 96.9725 48.415 97.1176 47.2355 98.7411C49.1019 99.2246 50.8643 97.242 52.5919 98.8861C49.1228 100.143 44.4047 99.7497 33.0676 97.3387C33.6435 96.2264 34.8993 97.2903 35.8429 96.2955C33.6574 95.052 31.2567 95.1763 29.0296 94.8102C22.9933 93.8085 16.9292 94.9346 10.8721 94.8793C8.29804 94.8793 5.71701 95.7912 2.76825 95.273C5.43948 92.4475 9.17228 94.1816 12.017 92.413C11.4619 91.3629 12.3639 90.5132 12.8426 89.2835H6.59818C10.4004 86.907 14.3204 87.7568 17.5884 86.2507C17.1513 84.9312 17.1513 84.9313 19.3785 83.6394C17.9908 82.6031 16.4366 83.1489 15.042 83.0453C13.8867 82.9759 12.7282 82.9759 11.5729 83.0453C10.2408 83.1075 9.04043 83.1213 8.74208 81.4011C8.62413 80.7103 7.35442 81.332 7.29891 79.9572C10.664 79.2664 14.2788 79.8329 17.623 78.5756C17.7271 78.0022 16.9709 77.7604 16.8529 77.1939C17.0958 75.9919 18.6777 76.2544 19.0454 75.1905C19.0816 75.0242 19.0548 74.8505 18.9703 74.7026C18.8858 74.5547 18.7495 74.4431 18.5875 74.3891C17.29 73.6983 15.8677 74.1819 14.5147 74.0299C12.794 72.0886 10.6085 72.5308 8.47843 72.9384C7.32667 73.1664 5.5713 73.9746 5.32153 72.7311C5.00237 71.1629 2.54622 73.042 2.97639 70.7139C3.18454 69.6085 0.894933 70.3477 0.00683594 69.194C0.37079 68.7798 0.815598 68.4438 1.3142 68.2062C1.8128 67.9687 2.35475 67.8347 2.90702 67.8124C6.51492 67.2942 10.1991 67.3357 13.7793 66.486C14.5425 66.3063 15.3265 66.2373 16.1105 66.03C17.5398 65.6501 16.0134 64.7727 16.4852 64.4964C17.1615 64.0696 17.9162 63.7808 18.7054 63.6466C20.6639 63.2765 22.5683 62.6638 24.374 61.8228C24.8736 60.8418 22.1329 60.1027 24.5683 59.3911C21.4113 56.9525 17.9491 59.4809 14.5841 58.6243C15.4791 56.5103 17.5953 56.3652 18.9344 55.2944C20.5718 54.0026 22.7643 53.3532 24.256 51.6883C24.7625 51.1218 25.5535 51.3636 26.2196 51.2392C30.1327 50.4885 34.039 49.7079 37.9383 48.8973C38.3862 48.7404 38.8109 48.5243 39.2011 48.2548L38.417 46.6314C40.6928 45.7747 42.9963 47.868 45.4594 45.9405C47.0343 44.7247 50.2052 45.8093 51.9536 43.2946C49.5599 42.6038 47.6865 43.3706 45.7716 43.4881C43.8566 43.6055 42.7118 41.1807 40.554 41.5261C40.7552 40.2135 41.5878 40.2342 42.3719 40.1997C46.6805 40.0132 50.9614 39.3638 55.2978 39.4605C58.1078 39.5227 58.4478 39.1289 59.3081 36.255C61.5145 35.6885 63.9984 36.6764 66.066 35.7991C68.1336 34.9217 70.673 36.2205 73.0043 34.1273C69.9029 34.0444 67.412 33.616 64.9351 34.3967C64.5 34.5377 64.0465 34.6145 63.589 34.6247C57.8442 34.6592 52.1895 35.4744 46.514 36.2274C44.8349 36.4485 42.6702 37.3604 41.0536 34.8872C42.1498 33.7888 43.0795 32.2966 45.0014 33.9891C45.612 34.521 46.0422 33.9891 46.5556 33.9891C48.8869 34.0927 50.4549 32.0824 52.6543 31.813C53.3482 28.5039 56.3802 29.7405 58.5311 28.8009C56.2206 26.7284 53.2372 28.497 50.788 27.3709C50.788 25.6991 51.9397 25.6576 53.147 25.6714C54.3542 25.6853 55.388 25.8303 56.2068 24.1792C56.7549 23.0739 58.9196 22.839 60.4946 22.2933H43.5652C43.5652 22.0376 43.5097 21.7751 43.4889 21.5126C48.3346 21.6425 53.1721 21.0415 57.8372 19.7303C55.7974 19.5023 53.7853 19.1569 51.7593 19.8546C49.4489 20.6491 46.9927 20.1862 44.5921 20.504C40.776 21.0083 36.9184 22.0998 32.922 21.3399C34.0945 19.7026 36.1066 19.7165 37.5844 19.6128C43.8289 19.1569 49.9623 17.5403 56.3177 17.2364C62.25 16.9738 68.1822 16.2968 74.1283 15.8547C81.5383 15.3435 88.8998 14.2105 96.3307 13.7822C100.494 13.5335 104.615 12.29 108.764 11.5439C113.926 10.6251 119.067 9.61644 124.278 9.00851C127.782 8.60092 131.216 7.82027 134.727 7.25378C137.211 6.86001 139.723 6.43169 141.929 7.94462C142.297 9.32629 140.888 9.39537 140.541 10.2727C140.85 10.3682 141.166 10.4421 141.485 10.4938C145.967 10.5283 150.373 9.85133 154.792 9.22267C158.074 8.7529 161.412 8.91179 164.742 8.53183C175.066 7.29524 185.494 8.28312 195.832 7.61992C209.563 6.74256 223.294 7.66137 236.99 6.92909C242.631 6.61821 248.195 7.06034 253.753 7.24687C261.08 7.48866 268.42 8.05514 275.726 8.62854C281.145 9.05685 286.557 8.68382 291.927 9.20886C298.713 9.89969 305.526 9.44373 312.284 9.95495C318.681 10.4385 325.057 11.0672 331.482 11.3366C336.492 11.5577 341.501 12.2554 346.517 12.7183C349.352 12.8776 352.174 13.2075 354.968 13.7062C352.235 15.1846 350.028 14.6181 347.898 14.397C347.246 14.3348 346.615 13.9065 345.9 13.9618C339.898 14.3901 333.98 12.967 327.972 13.2226C325.356 13.3262 322.705 13.5335 320.097 12.6699C318.955 12.3297 317.731 12.3882 316.627 12.8357C319.965 14.8461 323.802 13.3746 327.299 14.2174C326.896 15.5369 326.105 15.2537 325.495 15.2882C322.983 15.4125 320.457 15.0326 317.973 15.9238C317.077 16.1685 316.125 16.1077 315.268 15.751C314.066 15.3324 312.784 15.1953 311.521 15.3504C305.519 15.6889 299.539 14.8806 293.606 14.3901C289.187 14.024 284.691 14.3901 280.257 13.3884C277.537 12.7597 274.706 14.6043 271.522 13.6716C271.834 15.1017 272.514 15.3504 273.319 15.2744C278.058 14.8392 282.727 15.7994 287.424 16.0896C296.021 16.6146 304.603 17.2087 313.221 17.4712C315.842 17.6234 318.433 18.0991 320.936 18.8874C323.018 19.4816 325.064 19.1776 327.083 19.5092C331.843 20.2898 336.721 19.6474 341.446 20.7665C341.672 20.8213 341.907 20.8376 342.139 20.8149C346.878 20.4142 351.534 21.8097 356.252 21.5057C360.97 21.2017 365.369 22.3209 370.559 22.3209C369.645 22.8414 368.583 23.0454 367.54 22.9012C361.643 22.9012 355.745 22.9012 349.848 22.9012C348.821 22.9012 347.766 23.0601 346.788 22.5558C345.248 21.7751 344.512 22.839 343.277 24.2967C352.602 23.9236 361.178 26.0169 370.038 26.4244C369.344 28.0134 367.624 27.3847 366.437 28.3588C370.822 28.3588 374.853 29.4158 379.023 29.2085C381.653 29.0773 384.199 30.0237 386.752 30.5902C389.66 31.2258 392.511 32.0893 395.529 31.9719C396.313 31.9304 397.215 31.806 397.555 32.8285C398.207 34.8112 399.984 34.9839 401.628 35.4053C403.71 35.9372 405.736 36.5106 408.372 37.2222C405.396 39.1773 402.169 37.084 399.706 39.0391C401.152 39.8157 402.735 40.306 404.369 40.4829C402.724 41.3534 401.129 40.483 399.581 41.4709C400.927 43.0183 402.745 41.837 404.07 42.5209C403.973 43.7644 402.815 43.6124 401.843 43.8542C404.161 45.4915 406.637 44.8835 409.114 45.2359C406.95 47.3636 404.306 45.9267 401.843 46.735C404.237 49.2497 407.477 48.8835 410.301 49.9059H397.229C397.229 50.1546 397.153 50.3964 397.118 50.6451C399.533 51.6676 402.232 51.5847 404.799 51.9784C407.505 52.3929 410.211 53.0009 412.986 52.6693C413.16 54.2098 411.383 53.8368 410.911 55.4326Z" fill="#51403F"/>
<path d="M275.255 2.09326C274.436 3.89634 273.222 3.77889 272.369 3.40584C270.898 2.74955 269.427 2.92226 267.949 2.90844C262.516 2.90844 257.07 3.15716 251.658 2.8601C237.49 2.06564 223.308 2.26597 209.133 2.2038C207.843 2.2038 206.628 2.13472 205.664 1.08465C211.804 -0.552632 218.042 0.393809 224.224 0.110567C232.411 -0.303934 240.57 0.545799 248.716 1.00175C253.649 1.27808 258.582 1.27118 263.515 1.51988C267.359 1.71331 271.12 2.65284 275.255 2.09326Z" fill="#51403F"/>
<path d="M188.304 4.96709C183.496 4.62858 178.764 5.40923 174.074 4.34535C173.622 4.2197 173.148 4.19844 172.686 4.28317C168.662 5.22962 164.451 4.39371 160.468 5.6234C158.387 6.25896 156.263 6.15534 154.154 6.31423C152.329 6.43858 150.498 6.26586 148.728 6.97051C148.264 7.15704 147.598 7.1225 147.042 6.2175C149.286 4.8748 151.902 4.28398 154.508 4.53186C157.332 4.77366 160.503 3.64761 163.528 3.26765C163.861 3.2262 164.173 2.95676 164.499 2.95676C172.076 2.86005 179.618 1.64418 187.208 2.26593C187.382 2.26593 187.527 2.53536 187.694 2.68735C187.846 3.75814 186.743 3.37818 186.306 3.76505C186.681 4.78748 187.895 3.79267 188.304 4.96709Z" fill="#51403F"/>
<path d="M363.676 16.9876C358.694 18.1413 353.789 16.5593 348.821 16.4488C353.796 15.3296 358.701 16.8149 363.676 16.9876Z" fill="#51403F"/>
<path d="M290.824 3.99994C288.098 3.99994 285.274 4.87038 282.006 3.38509C285.51 2.20376 288.105 3.90322 290.824 3.99994Z" fill="#51403F"/>
<path d="M14.5147 74.0506C12.8634 75.4737 10.9069 75.5082 8.67969 75.3701C10.5391 73.8226 12.5651 74.0782 14.5356 74.0782L14.5147 74.0506Z" fill="#51403F"/>
<path d="M198.976 1.74087C198.074 2.35571 197.297 2.43172 196.52 1.77542C196.568 1.54745 196.52 1.20894 196.658 1.16749C197.533 0.822069 198.476 0.366108 198.976 1.74087Z" fill="#51403F"/>
<path d="M202.368 1.35402C202.271 1.60963 202.25 1.89978 202.119 1.96196C201.147 2.42482 200.46 2.12777 200.072 1.09152C200.904 0.739195 201.688 0.594102 202.368 1.35402Z" fill="#51403F"/>
<path d="M280.417 3.41964H276.455C277.766 2.71499 279.092 2.94987 280.417 3.41964Z" fill="#51403F"/>
</g>
<defs>
<clipPath id="clip0">
<rect width="413" height="105" fill="white"/>
</clipPath>
</defs>
</svg>
